<?xml version='1.0' encoding='UTF-8' standalone='no'?>
<!-- Created with Fritzing (http://www.fritzing.org/) -->
<svg xmlns:svg='http://www.w3.org/2000/svg' xmlns='http://www.w3.org/2000/svg' version='1.2' baseProfile='tiny' x='0in' y='0in' width='3.14961in' height='1.41732in' viewBox='0 0 226.772 102.047' >
  <g partID="854382460" id="g1052">
<g xmlns="http://www.w3.org/2000/svg" id="breadboard">
 <g xmlns="http://www.w3.org/2000/svg" id="svg">
  <g xmlns="http://www.w3.org/2000/svg" id="breadboard">
          <circle
             connectorname="+3V3"
             cx="1.6"
             cy="35"
             gorn="0.3.0.8"
             id="connector5pin"
             r="1.96866"
             style="fill:none;stroke:#9a916c;stroke-width:1.10267997" />
          <circle
             connectorname="GND"
             cx="1.6"
             cy="27.8"
             gorn="0.3.0.9"
             id="connector6pin"
             r="1.96866"
             style="fill:none;stroke:#9a916c;stroke-width:1.10267997" />
          <circle
             connectorname="SCL"
             cx="1.6"
             cy="20.6"
             gorn="0.3.0.10"
             id="connector7pin"
             r="1.96866"
             style="fill:none;stroke:#9a916c;stroke-width:1.10267997" />
          <circle
             connectorname="SDA"
             cx="1.68"
             cy="13.4"
             gorn="0.3.0.11"
             id="connector8pin"
             r="1.96866"
             style="fill:none;stroke:#9a916c;stroke-width:1.10267997" /> 
   <path xmlns="http://www.w3.org/2000/svg" d="M0,0l0,102.047l226.772,0L226.772,0L0,0zM113.029,2.081c0.766,0,1.387,0.621,1.387,1.387s-0.621,1.387,-1.387,1.387s-1.387,-0.621,-1.387,-1.387S112.264,2.081,113.029,2.081zM41.03,2.081c0.766,0,1.387,0.621,1.387,1.387s-0.621,1.387,-1.387,1.387s-1.387,-0.621,-1.387,-1.387S40.265,2.081,41.03,2.081zM33.83,2.081c0.766,0,1.387,0.621,1.387,1.387s-0.621,1.387,-1.387,1.387s-1.387,-0.621,-1.387,-1.387S33.064,2.081,33.83,2.081zM6.542,3.736c1.576,0,2.854,1.277,2.854,2.854S8.118,9.443,6.542,9.443S3.688,8.166,3.688,6.59S4.966,3.736,6.542,3.736zM6.545,98.339c-1.576,0,-2.854,-1.278,-2.854,-2.854c0,-1.576,1.278,-2.854,2.854,-2.854s2.854,1.277,2.854,2.854C9.398,97.061,8.121,98.339,6.545,98.339zM19.43,4.854c-0.766,0,-1.387,-0.621,-1.387,-1.387s0.621,-1.387,1.387,-1.387s1.387,0.621,1.387,1.387S20.195,4.854,19.43,4.854zM25.243,3.468c0,-0.766,0.621,-1.387,1.387,-1.387s1.387,0.621,1.387,1.387s-0.621,1.387,-1.387,1.387S25.243,4.233,25.243,3.468zM43.219,89.84L26.886,89.84l0,-4.816l16.333,0L43.219,89.84zM43.219,17.023L26.886,17.023l0,-4.816l16.333,0L43.219,17.023zM48.229,4.854c-0.766,0,-1.387,-0.621,-1.387,-1.387s0.621,-1.387,1.387,-1.387s1.387,0.621,1.387,1.387S48.995,4.854,48.229,4.854zM55.43,4.854c-0.766,0,-1.387,-0.621,-1.387,-1.387s0.621,-1.387,1.387,-1.387s1.387,0.621,1.387,1.387S56.195,4.854,55.43,4.854zM62.63,4.854c-0.766,0,-1.387,-0.621,-1.387,-1.387s0.621,-1.387,1.387,-1.387s1.387,0.621,1.387,1.387S63.396,4.854,62.63,4.854zM69.83,4.854c-0.766,0,-1.387,-0.621,-1.387,-1.387s0.621,-1.387,1.387,-1.387s1.387,0.621,1.387,1.387S70.596,4.854,69.83,4.854zM77.029,4.854c-0.766,0,-1.387,-0.621,-1.387,-1.387s0.621,-1.387,1.387,-1.387s1.387,0.621,1.387,1.387S77.795,4.854,77.029,4.854zM84.229,4.854c-0.766,0,-1.387,-0.621,-1.387,-1.387s0.621,-1.387,1.387,-1.387s1.387,0.621,1.387,1.387S84.995,4.854,84.229,4.854zM91.43,4.854c-0.766,0,-1.387,-0.621,-1.387,-1.387s0.621,-1.387,1.387,-1.387s1.387,0.621,1.387,1.387S92.195,4.854,91.43,4.854zM98.63,4.854c-0.766,0,-1.387,-0.621,-1.387,-1.387s0.621,-1.387,1.387,-1.387s1.387,0.621,1.387,1.387S99.396,4.854,98.63,4.854zM104.442,3.468c0,-0.766,0.621,-1.387,1.387,-1.387s1.387,0.621,1.387,1.387s-0.621,1.387,-1.387,1.387S104.442,4.233,104.442,3.468zM121.553,89.84l-16.334,0l0,-4.816l16.334,0L121.553,89.84zM121.553,17.023l-16.334,0l0,-4.816l16.334,0L121.553,17.023zM120.229,4.854c-0.766,0,-1.387,-0.621,-1.387,-1.387s0.621,-1.387,1.387,-1.387s1.387,0.621,1.387,1.387S120.995,4.854,120.229,4.854zM127.43,4.854c-0.766,0,-1.387,-0.621,-1.387,-1.387s0.621,-1.387,1.387,-1.387s1.387,0.621,1.387,1.387S128.196,4.854,127.43,4.854zM199.885,89.84l-16.332,0l0,-4.816l16.332,0L199.885,89.84zM199.885,17.023l-16.332,0l0,-4.816l16.332,0L199.885,17.023zM220.208,3.731c1.576,0,2.854,1.277,2.854,2.854s-1.277,2.854,-2.854,2.854s-2.855,-1.277,-2.855,-2.854S218.631,3.731,220.208,3.731zM220.208,98.34c-1.576,0,-2.854,-1.277,-2.854,-2.854c0,-1.575,1.277,-2.854,2.854,-2.854s2.855,1.278,2.855,2.854C223.063,97.062,221.784,98.34,220.208,98.34z" fill="#1F7A34"/>
   <g xmlns="http://www.w3.org/2000/svg">
    <path xmlns="http://www.w3.org/2000/svg" d="M1.581,6.59c0,2.737,2.223,4.961,4.96,4.961c2.742,0,4.961,-2.224,4.961,-4.961c0,-2.741,-2.219,-4.96,-4.961,-4.96C3.804,1.63,1.581,3.849,1.581,6.59zM3.688,6.59c0,-1.576,1.278,-2.854,2.854,-2.854c1.576,0,2.854,1.277,2.854,2.854S8.117,9.443,6.541,9.443C4.966,9.443,3.688,8.166,3.688,6.59z" fill="#9A916C"/>
   </g>
   <g xmlns="http://www.w3.org/2000/svg">
    <g xmlns="http://www.w3.org/2000/svg">
     <path xmlns="http://www.w3.org/2000/svg" d="M225.168,95.486c0,-2.737,-2.223,-4.961,-4.961,-4.961c-2.742,0,-4.961,2.224,-4.961,4.961c0,2.741,2.219,4.96,4.961,4.96C222.946,100.446,225.168,98.228,225.168,95.486zM223.063,95.486c0,1.576,-1.279,2.854,-2.855,2.854s-2.854,-1.277,-2.854,-2.854c0,-1.575,1.277,-2.854,2.854,-2.854S223.063,93.911,223.063,95.486z" fill="#9A916C"/>
    </g>
   </g>
   <g xmlns="http://www.w3.org/2000/svg">
    <g xmlns="http://www.w3.org/2000/svg">
     <path xmlns="http://www.w3.org/2000/svg" d="M1.584,95.485c0,2.737,2.223,4.961,4.96,4.961c2.742,0,4.961,-2.224,4.961,-4.961c0,-2.741,-2.219,-4.96,-4.961,-4.96C3.807,90.525,1.584,92.744,1.584,95.485zM3.69,95.485c0,-1.576,1.278,-2.854,2.854,-2.854c1.576,0,2.854,1.277,2.854,2.854c0,1.575,-1.278,2.854,-2.854,2.854C4.969,98.339,3.69,97.061,3.69,95.485z" fill="#9A916C"/>
    </g>
   </g>
   <path xmlns="http://www.w3.org/2000/svg" d="M217.563,65.272c-0.734,0,-1.336,-0.602,-1.336,-1.337L216.227,38.113c0,-0.735,0.602,-1.337,1.336,-1.337l0.057,0L217.62,16.726l0,-0.698l-0.699,0l-2.049,-2.049l0,-0.713l-0.713,0L12.611,13.266l-0.713,0l0,0.713L9.85,16.027L9.151,16.027l0,0.698l0,20.051l0.057,0c0.735,0,1.337,0.602,1.337,1.337l0,25.822c0,0.735,-0.602,1.337,-1.337,1.337L9.151,65.272l0,20.049l0,0.698L9.85,86.019l2.049,2.049l0,0.713l0.713,0l201.547,0l0.713,0l0,-0.713l2.049,-2.049l0.699,0l0,-0.698L217.62,65.272L217.563,65.272z" fill="#303030"/>
   <g xmlns="http://www.w3.org/2000/svg">
    <path xmlns="http://www.w3.org/2000/svg" d="M208.663,71.382c0,2.206,-1.805,4.011,-4.012,4.011L22.12,75.393c-2.206,0,-4.011,-1.805,-4.011,-4.011L18.109,30.665c0,-2.206,1.805,-4.011,4.011,-4.011l182.531,0c2.207,0,4.012,1.805,4.012,4.011L208.663,71.382z" fill="#87AD34"/>
    <g xmlns="http://www.w3.org/2000/svg" opacity="0.2">
     <path xmlns="http://www.w3.org/2000/svg" d="M208.655,30.646l0,40.755c0,-0.006,0.002,-0.012,0.002,-0.019L208.657,30.665C208.657,30.658,208.655,30.652,208.655,30.646zM22.12,26.654c-2.205,0,-4.011,1.806,-4.011,4.011l0,40.717c0,2.205,1.806,4.011,4.011,4.011l2.326,0c-2.206,0,-4.011,-1.806,-4.011,-4.011L20.435,32.003c0,-2.206,1.805,-4.011,4.011,-4.011l183.165,0c-0.735,-0.814,-1.787,-1.338,-2.964,-1.338L22.12,26.654z" fill="#22420D"/>
    </g>
   </g>
   <g xmlns="http://www.w3.org/2000/svg">
    <path xmlns="http://www.w3.org/2000/svg" d="M210.358,18.618c0,-0.735,-0.602,-1.336,-1.336,-1.336L17.75,17.282c-0.735,0,-1.336,0.602,-1.336,1.336l0,0.737c0,0.735,0.602,1.336,1.336,1.336l191.271,0c0.734,0,1.336,-0.602,1.336,-1.336L210.357,18.618z" fill="#1A1A1A"/>
    <path xmlns="http://www.w3.org/2000/svg" d="M209.69,19.812c0,-0.484,-0.432,-0.88,-0.957,-0.88L18.117,18.932c-0.526,0,-0.957,0.396,-0.957,0.88s0.431,0.88,0.957,0.88l190.616,0C209.258,20.691,209.69,20.295,209.69,19.812z" fill="#424242"/>
   </g>
   <g xmlns="http://www.w3.org/2000/svg">
    <path xmlns="http://www.w3.org/2000/svg" d="M210.358,82.056c0,-0.734,-0.602,-1.336,-1.336,-1.336L17.75,80.72c-0.735,0,-1.336,0.602,-1.336,1.336l0,0.738c0,0.734,0.602,1.336,1.336,1.336l191.271,0c0.734,0,1.336,-0.602,1.336,-1.336L210.357,82.056z" fill="#1A1A1A"/>
    <path xmlns="http://www.w3.org/2000/svg" d="M209.69,83.251c0,-0.484,-0.432,-0.88,-0.957,-0.88L18.117,82.371c-0.526,0,-0.957,0.396,-0.957,0.88c0,0.483,0.431,0.879,0.957,0.879l190.616,0C209.258,84.13,209.69,83.734,209.69,83.251z" fill="#424242"/>
   </g>
   <g xmlns="http://www.w3.org/2000/svg">
    <line xmlns="http://www.w3.org/2000/svg" stroke-opacity="0.2" x1="9.937" y2="14.06" x2="12.05" fill="none" stroke="#F2F2F2" y1="16.173" stroke-linecap="round" stroke-width="0.2358"/>
    <line xmlns="http://www.w3.org/2000/svg" stroke-opacity="0.2" x1="12.072" y2="85.863" x2="9.959" fill="none" stroke="#F2F2F2" y1="87.977" stroke-linecap="round" stroke-width="0.2358"/>
   </g>
   <g xmlns="http://www.w3.org/2000/svg">
    <line xmlns="http://www.w3.org/2000/svg" stroke-opacity="0.2" x1="216.823" y2="14.06" x2="214.709" fill="none" stroke="#F2F2F2" y1="16.173" stroke-linecap="round" stroke-width="0.2358"/>
    <line xmlns="http://www.w3.org/2000/svg" stroke-opacity="0.2" x1="214.688" y2="85.863" x2="216.801" fill="none" stroke="#F2F2F2" y1="87.977" stroke-linecap="round" stroke-width="0.2358"/>
   </g>
   <path xmlns="http://www.w3.org/2000/svg" stroke-opacity="0.4" d="M208.657,71.382c0,2.205,-1.805,4.011,-4.01,4.011L22.12,75.393c-2.205,0,-4.011,-1.806,-4.011,-4.011L18.109,30.665c0,-2.205,1.806,-4.011,4.011,-4.011l182.527,0c2.205,0,4.01,1.806,4.01,4.011L208.657,71.382z" fill="none" stroke="#1A1A1A" stroke-width="1.415"/>
   <g xmlns="http://www.w3.org/2000/svg">
    <path xmlns="http://www.w3.org/2000/svg" d="M215.247,6.585c0,2.737,2.223,4.961,4.961,4.961c2.742,0,4.961,-2.224,4.961,-4.961c0,-2.741,-2.219,-4.96,-4.961,-4.96C217.469,1.625,215.247,3.844,215.247,6.585zM217.352,6.585c0,-1.576,1.279,-2.854,2.855,-2.854s2.854,1.277,2.854,2.854s-1.277,2.854,-2.854,2.854S217.352,8.161,217.352,6.585z" fill="#9A916C"/>
   </g>
   <g xmlns="http://www.w3.org/2000/svg">
    <path xmlns="http://www.w3.org/2000/svg" d="M17.02,0l0,4.75c0,1.33,1.078,2.41,2.41,2.41c1.33,0,2.41,-1.08,2.41,-2.41L21.84,0L17.02,0zM19.43,4.854c-0.766,0,-1.387,-0.621,-1.387,-1.387s0.621,-1.387,1.387,-1.387s1.387,0.621,1.387,1.387S20.195,4.854,19.43,4.854z" fill="#9A916C"/>
   </g>
   <g xmlns="http://www.w3.org/2000/svg">
    <path xmlns="http://www.w3.org/2000/svg" d="M24.22,0l0,4.75c0,1.33,1.078,2.41,2.41,2.41c1.33,0,2.41,-1.08,2.41,-2.41L29.04,0L24.22,0zM26.63,4.854c-0.766,0,-1.387,-0.621,-1.387,-1.387s0.621,-1.387,1.387,-1.387s1.387,0.621,1.387,1.387S27.396,4.854,26.63,4.854z" fill="#9A916C"/>
   </g>
   <g xmlns="http://www.w3.org/2000/svg">
    <path xmlns="http://www.w3.org/2000/svg" d="M31.42,0l0,4.75c0,1.33,1.078,2.41,2.41,2.41c1.33,0,2.41,-1.08,2.41,-2.41L36.24,0L31.42,0zM33.83,4.854c-0.766,0,-1.387,-0.621,-1.387,-1.387s0.621,-1.387,1.387,-1.387s1.387,0.621,1.387,1.387S34.596,4.854,33.83,4.854z" fill="#9A916C"/>
   </g>
   <g xmlns="http://www.w3.org/2000/svg">
    <path xmlns="http://www.w3.org/2000/svg" d="M38.62,0l0,4.75c0,1.33,1.078,2.41,2.41,2.41c1.33,0,2.41,-1.08,2.41,-2.41L43.44,0L38.62,0zM41.03,4.854c-0.766,0,-1.387,-0.621,-1.387,-1.387s0.621,-1.387,1.387,-1.387s1.387,0.621,1.387,1.387S41.796,4.854,41.03,4.854z" fill="#9A916C"/>
   </g>
   <g xmlns="http://www.w3.org/2000/svg">
    <path xmlns="http://www.w3.org/2000/svg" d="M45.819,0l0,4.75c0,1.33,1.078,2.41,2.41,2.41c1.33,0,2.41,-1.08,2.41,-2.41L50.639,0L45.819,0zM48.229,4.854c-0.766,0,-1.387,-0.621,-1.387,-1.387s0.621,-1.387,1.387,-1.387s1.387,0.621,1.387,1.387S48.995,4.854,48.229,4.854z" fill="#9A916C"/>
   </g>
   <g xmlns="http://www.w3.org/2000/svg">
    <path xmlns="http://www.w3.org/2000/svg" d="M53.02,0l0,4.75c0,1.33,1.078,2.41,2.41,2.41c1.33,0,2.41,-1.08,2.41,-2.41L57.84,0L53.02,0zM55.43,4.854c-0.766,0,-1.387,-0.621,-1.387,-1.387s0.621,-1.387,1.387,-1.387s1.387,0.621,1.387,1.387S56.195,4.854,55.43,4.854z" fill="#9A916C"/>
   </g>
   <g xmlns="http://www.w3.org/2000/svg">
    <path xmlns="http://www.w3.org/2000/svg" d="M60.22,0l0,4.75c0,1.33,1.078,2.41,2.41,2.41c1.33,0,2.41,-1.08,2.41,-2.41L65.04,0L60.22,0zM62.63,4.854c-0.766,0,-1.387,-0.621,-1.387,-1.387s0.621,-1.387,1.387,-1.387s1.387,0.621,1.387,1.387S63.396,4.854,62.63,4.854z" fill="#9A916C"/>
   </g>
   <g xmlns="http://www.w3.org/2000/svg">
    <path xmlns="http://www.w3.org/2000/svg" d="M67.42,0l0,4.75c0,1.33,1.078,2.41,2.41,2.41c1.33,0,2.41,-1.08,2.41,-2.41L72.24,0L67.42,0zM69.83,4.854c-0.766,0,-1.387,-0.621,-1.387,-1.387s0.621,-1.387,1.387,-1.387s1.387,0.621,1.387,1.387S70.596,4.854,69.83,4.854z" fill="#9A916C"/>
   </g>
   <g xmlns="http://www.w3.org/2000/svg">
    <path xmlns="http://www.w3.org/2000/svg" d="M74.619,0l0,4.75c0,1.33,1.078,2.41,2.41,2.41c1.33,0,2.41,-1.08,2.41,-2.41L79.439,0L74.619,0zM77.029,4.854c-0.766,0,-1.387,-0.621,-1.387,-1.387s0.621,-1.387,1.387,-1.387s1.387,0.621,1.387,1.387S77.795,4.854,77.029,4.854z" fill="#9A916C"/>
   </g>
   <g xmlns="http://www.w3.org/2000/svg">
    <path xmlns="http://www.w3.org/2000/svg" d="M81.819,0l0,4.75c0,1.33,1.078,2.41,2.41,2.41c1.33,0,2.41,-1.08,2.41,-2.41L86.639,0L81.819,0zM84.229,4.854c-0.766,0,-1.387,-0.621,-1.387,-1.387s0.621,-1.387,1.387,-1.387s1.387,0.621,1.387,1.387S84.995,4.854,84.229,4.854z" fill="#9A916C"/>
   </g>
   <g xmlns="http://www.w3.org/2000/svg">
    <path xmlns="http://www.w3.org/2000/svg" d="M89.02,0l0,4.75c0,1.33,1.078,2.41,2.41,2.41c1.33,0,2.41,-1.08,2.41,-2.41L93.84,0L89.02,0zM91.43,4.854c-0.766,0,-1.387,-0.621,-1.387,-1.387s0.621,-1.387,1.387,-1.387s1.387,0.621,1.387,1.387S92.195,4.854,91.43,4.854z" fill="#9A916C"/>
   </g>
   <g xmlns="http://www.w3.org/2000/svg">
    <path xmlns="http://www.w3.org/2000/svg" d="M96.22,0l0,4.75c0,1.33,1.078,2.41,2.41,2.41c1.33,0,2.41,-1.08,2.41,-2.41L101.04,0L96.22,0zM98.63,4.854c-0.766,0,-1.387,-0.621,-1.387,-1.387s0.621,-1.387,1.387,-1.387s1.387,0.621,1.387,1.387S99.396,4.854,98.63,4.854z" fill="#9A916C"/>
   </g>
   <g xmlns="http://www.w3.org/2000/svg">
    <path xmlns="http://www.w3.org/2000/svg" d="M103.419,0l0,4.75c0,1.33,1.078,2.41,2.41,2.41c1.33,0,2.41,-1.08,2.41,-2.41L108.239,0L103.419,0zM105.829,4.854c-0.766,0,-1.387,-0.621,-1.387,-1.387s0.621,-1.387,1.387,-1.387s1.387,0.621,1.387,1.387S106.595,4.854,105.829,4.854z" fill="#9A916C"/>
   </g>
   <g xmlns="http://www.w3.org/2000/svg">
    <path xmlns="http://www.w3.org/2000/svg" d="M110.619,0l0,4.75c0,1.33,1.078,2.41,2.41,2.41c1.33,0,2.411,-1.08,2.411,-2.41L115.44,0L110.619,0zM113.029,4.854c-0.766,0,-1.387,-0.621,-1.387,-1.387s0.621,-1.387,1.387,-1.387s1.387,0.621,1.387,1.387S113.795,4.854,113.029,4.854z" fill="#9A916C"/>
   </g>
   <g xmlns="http://www.w3.org/2000/svg">
    <path xmlns="http://www.w3.org/2000/svg" d="M117.819,0l0,4.75c0,1.33,1.078,2.41,2.41,2.41c1.33,0,2.41,-1.08,2.41,-2.41L122.639,0L117.819,0zM120.229,4.854c-0.766,0,-1.387,-0.621,-1.387,-1.387s0.621,-1.387,1.387,-1.387s1.387,0.621,1.387,1.387S120.995,4.854,120.229,4.854z" fill="#9A916C"/>
   </g>
   <g xmlns="http://www.w3.org/2000/svg">
    <path xmlns="http://www.w3.org/2000/svg" d="M125.02,0l0,4.75c0,1.33,1.078,2.41,2.41,2.41c1.33,0,2.41,-1.08,2.41,-2.41L129.84,0L125.02,0zM127.43,4.854c-0.766,0,-1.387,-0.621,-1.387,-1.387s0.621,-1.387,1.387,-1.387s1.387,0.621,1.387,1.387S128.196,4.854,127.43,4.854z" fill="#9A916C"/>
   </g>
   <g xmlns="http://www.w3.org/2000/svg">
    <rect xmlns="http://www.w3.org/2000/svg" width="10.027" height="16.522" fill-opacity="0.1" fill="#1A1A1A" y="51.37" x="27.79"/>
    <rect xmlns="http://www.w3.org/2000/svg" width="10.027" height="16.522" fill-opacity="0.1" fill="#1A1A1A" y="51.37" x="38.534"/>
    <rect xmlns="http://www.w3.org/2000/svg" width="10.027" height="16.522" fill-opacity="0.1" fill="#1A1A1A" y="51.37" x="49.278"/>
    <rect xmlns="http://www.w3.org/2000/svg" width="10.028" height="16.522" fill-opacity="0.1" fill="#1A1A1A" y="51.37" x="60.022"/>
    <rect xmlns="http://www.w3.org/2000/svg" width="10.027" height="16.522" fill-opacity="0.1" fill="#1A1A1A" y="51.37" x="70.768"/>
    <rect xmlns="http://www.w3.org/2000/svg" width="10.027" height="16.522" fill-opacity="0.1" fill="#1A1A1A" y="51.37" x="81.512"/>
    <rect xmlns="http://www.w3.org/2000/svg" width="10.027" height="16.522" fill-opacity="0.1" fill="#1A1A1A" y="51.37" x="92.256"/>
    <rect xmlns="http://www.w3.org/2000/svg" width="10.027" height="16.522" fill-opacity="0.1" fill="#1A1A1A" y="51.37" x="103"/>
    <rect xmlns="http://www.w3.org/2000/svg" width="10.028" height="16.522" fill-opacity="0.1" fill="#1A1A1A" y="51.37" x="113.744"/>
    <rect xmlns="http://www.w3.org/2000/svg" width="10.027" height="16.522" fill-opacity="0.1" fill="#1A1A1A" y="51.37" x="124.489"/>
    <rect xmlns="http://www.w3.org/2000/svg" width="10.027" height="16.522" fill-opacity="0.1" fill="#1A1A1A" y="51.37" x="135.233"/>
    <rect xmlns="http://www.w3.org/2000/svg" width="10.027" height="16.522" fill-opacity="0.1" fill="#1A1A1A" y="51.37" x="145.977"/>
    <rect xmlns="http://www.w3.org/2000/svg" width="10.027" height="16.522" fill-opacity="0.1" fill="#1A1A1A" y="51.37" x="156.721"/>
    <rect xmlns="http://www.w3.org/2000/svg" width="10.027" height="16.522" fill-opacity="0.1" fill="#1A1A1A" y="51.37" x="167.465"/>
    <rect xmlns="http://www.w3.org/2000/svg" width="10.027" height="16.522" fill-opacity="0.1" fill="#1A1A1A" y="51.37" x="178.209"/>
    <rect xmlns="http://www.w3.org/2000/svg" width="10.027" height="16.522" fill-opacity="0.1" fill="#1A1A1A" y="51.37" x="188.954"/>
    <rect xmlns="http://www.w3.org/2000/svg" width="10.027" height="16.522" fill-opacity="0.1" fill="#1A1A1A" y="34.154" x="27.79"/>
    <rect xmlns="http://www.w3.org/2000/svg" width="10.027" height="16.522" fill-opacity="0.1" fill="#1A1A1A" y="34.154" x="38.534"/>
    <rect xmlns="http://www.w3.org/2000/svg" width="10.027" height="16.522" fill-opacity="0.1" fill="#1A1A1A" y="34.154" x="49.278"/>
    <rect xmlns="http://www.w3.org/2000/svg" width="10.028" height="16.522" fill-opacity="0.1" fill="#1A1A1A" y="34.154" x="60.022"/>
    <rect xmlns="http://www.w3.org/2000/svg" width="10.027" height="16.522" fill-opacity="0.1" fill="#1A1A1A" y="34.154" x="70.768"/>
    <rect xmlns="http://www.w3.org/2000/svg" width="10.027" height="16.522" fill-opacity="0.1" fill="#1A1A1A" y="34.154" x="81.512"/>
    <rect xmlns="http://www.w3.org/2000/svg" width="10.027" height="16.522" fill-opacity="0.1" fill="#1A1A1A" y="34.154" x="92.256"/>
    <rect xmlns="http://www.w3.org/2000/svg" width="10.027" height="16.522" fill-opacity="0.1" fill="#1A1A1A" y="34.154" x="103"/>
    <rect xmlns="http://www.w3.org/2000/svg" width="10.028" height="16.522" fill-opacity="0.1" fill="#1A1A1A" y="34.154" x="113.744"/>
    <rect xmlns="http://www.w3.org/2000/svg" width="10.027" height="16.522" fill-opacity="0.1" fill="#1A1A1A" y="34.154" x="124.489"/>
    <rect xmlns="http://www.w3.org/2000/svg" width="10.027" height="16.522" fill-opacity="0.1" fill="#1A1A1A" y="34.154" x="135.233"/>
    <rect xmlns="http://www.w3.org/2000/svg" width="10.027" height="16.522" fill-opacity="0.1" fill="#1A1A1A" y="34.154" x="145.977"/>
    <rect xmlns="http://www.w3.org/2000/svg" width="10.027" height="16.522" fill-opacity="0.1" fill="#1A1A1A" y="34.154" x="156.721"/>
    <rect xmlns="http://www.w3.org/2000/svg" width="10.027" height="16.522" fill-opacity="0.1" fill="#1A1A1A" y="34.154" x="167.465"/>
    <rect xmlns="http://www.w3.org/2000/svg" width="10.027" height="16.522" fill-opacity="0.1" fill="#1A1A1A" y="34.154" x="178.209"/>
    <rect xmlns="http://www.w3.org/2000/svg" width="10.027" height="16.522" fill-opacity="0.1" fill="#1A1A1A" y="34.154" x="188.954"/>
   </g>
   <g xmlns="http://www.w3.org/2000/svg">
    <path xmlns="http://www.w3.org/2000/svg" d="M9.454,65.223L9.454,86.02l0.268,0L9.722,65.168C9.639,65.203,9.544,65.205,9.454,65.223z" fill="#606060"/>
    <path xmlns="http://www.w3.org/2000/svg" d="M9.722,36.881L9.722,16.026L9.454,16.026l0,20.8C9.544,36.844,9.639,36.846,9.722,36.881z" fill="#606060"/>
   </g>
   <rect xmlns="http://www.w3.org/2000/svg" width="202.969" height="0.267" fill="#606060" y="13.572" x="11.9"/>
   <rect xmlns="http://www.w3.org/2000/svg" width="202.969" height="0.304" fill="#212121" y="13.27" x="11.9"/>
   <g xmlns="http://www.w3.org/2000/svg">
    <path xmlns="http://www.w3.org/2000/svg" d="M9.208,36.776c0.087,0,0.164,0.034,0.247,0.05l0,-20.8L9.152,16.026l0,20.75L9.208,36.776z" fill="#212121"/>
    <path xmlns="http://www.w3.org/2000/svg" d="M9.208,65.272L9.152,65.272L9.152,86.02l0.303,0L9.455,65.222C9.372,65.238,9.295,65.272,9.208,65.272z" fill="#212121"/>
   </g>
   <rect xmlns="http://www.w3.org/2000/svg" width="202.969" height="0.303" fill="#212121" y="88.48" x="11.9"/>
   <rect xmlns="http://www.w3.org/2000/svg" width="202.969" height="0.267" fill="#606060" y="88.215" x="11.9"/>
   <g xmlns="http://www.w3.org/2000/svg">
    <path xmlns="http://www.w3.org/2000/svg" d="M217.563,65.272c-0.089,0,-0.166,-0.034,-0.25,-0.051L217.313,86.02l0.305,0L217.618,65.272L217.563,65.272z" fill="#212121"/>
    <path xmlns="http://www.w3.org/2000/svg" d="M217.563,36.776l0.055,0l0,-20.75l-0.305,0l0,20.801C217.397,36.811,217.474,36.776,217.563,36.776z" fill="#212121"/>
   </g>
   <g xmlns="http://www.w3.org/2000/svg">
    <path xmlns="http://www.w3.org/2000/svg" d="M217.049,65.168L217.049,86.02l0.266,0L217.315,65.222C217.226,65.205,217.131,65.203,217.049,65.168z" fill="#606060"/>
    <path xmlns="http://www.w3.org/2000/svg" d="M217.315,36.827l0,-20.8l-0.266,0l0,20.854C217.131,36.846,217.226,36.844,217.315,36.827z" fill="#606060"/>
   </g>
  </g>
  <circle xmlns="http://www.w3.org/2000/svg" cy="3.468" r="1.387" id="connector0pin" cx="19.43"/>
  <circle xmlns="http://www.w3.org/2000/svg" cy="3.468" r="1.387" id="connector1pin" cx="26.63"/>
  <circle xmlns="http://www.w3.org/2000/svg" cy="3.468" r="1.387" id="connector2pin" cx="33.83"/>
  <circle xmlns="http://www.w3.org/2000/svg" cy="3.468" r="1.387" id="connector3pin" cx="41.03"/>
  <circle xmlns="http://www.w3.org/2000/svg" cy="3.468" r="1.387" id="connector4pin" cx="48.229"/>
  <circle xmlns="http://www.w3.org/2000/svg" cy="3.468" r="1.387" id="connector5pin" cx="55.43"/>
  <path xmlns="http://www.w3.org/2000/svg" d="M61.243,3.468c0,-0.766,0.621,-1.387,1.387,-1.387s1.387,0.621,1.387,1.387s-0.621,1.387,-1.387,1.387S61.243,4.233,61.243,3.468" id="connector6pin"/>
  <circle xmlns="http://www.w3.org/2000/svg" cy="3.468" r="1.387" id="connector7pin" cx="69.83"/>
  <circle xmlns="http://www.w3.org/2000/svg" cy="3.468" r="1.387" id="connector8pin" cx="77.029"/>
  <circle xmlns="http://www.w3.org/2000/svg" cy="3.468" r="1.387" id="connector9pin" cx="84.229"/>
  <circle xmlns="http://www.w3.org/2000/svg" cy="3.468" r="1.387" id="connector10pin" cx="91.43"/>
  <circle xmlns="http://www.w3.org/2000/svg" cy="3.468" r="1.387" id="connector11pin" cx="98.63"/>
  <circle xmlns="http://www.w3.org/2000/svg" cy="3.468" r="1.387" id="connector12pin" cx="105.829"/>
  <circle xmlns="http://www.w3.org/2000/svg" cy="3.468" r="1.387" id="connector13pin" cx="113.029"/>
  <circle xmlns="http://www.w3.org/2000/svg" cy="3.468" r="1.387" id="connector14pin" cx="120.229"/>
  <circle xmlns="http://www.w3.org/2000/svg" cy="3.468" r="1.387" id="connector15pin" cx="127.43"/>
 </g>
 <g xmlns="http://www.w3.org/2000/svg" id="Ebene_2"/>
</g>
</g></svg>